# xmcd CD database file
#
# Track frame offsets:
#	150
#	15662
#	28900
#	46400
#	61547
#	79438
#	94032
#	109221
#	127174
#	143339
#	157645
#	173500
#	187927
#
# Disc length: 2723 seconds
#
# Revision: 0
# Processed by: cddbd v1.5.2PL0 Copyright (c) Steve Scherf et al.
# Submitted via: CDex 1.51
#
DISCID=990aa10d
DTITLE=Rascal Flatts - Back To Us (Deluxe Edition)
DYEAR=2017
DGENRE=Country
TTITLE0=Rascal Flatts - Yours If You Want It
TTITLE1=Rascal Flatts - Hopin' You Were Lookin'
TTITLE2=Rascal Flatts - I Know You Won't
TTITLE3=Rascal Flatts - Dance
TTITLE4=Rascal Flatts - Back To Us
TTITLE5=Rascal Flatts - Kiss You While I Can
TTITLE6=Rascal Flatts - Vandalized
TTITLE7=Rascal Flatts with Lauren Alaina - Are You Happy Now
TTITLE8=Rascal Flatts - Hands Talk
TTITLE9=Rascal Flatts - Thieves
TTITLE10=Rascal Flatts - Love What You've Done With The Place
TTITLE11=Rascal Flatts - Roller Rink
TTITLE12=Rascal Flatts - Our Night To Shine
EXTD=YEAR: 2017
EXTT0=
EXTT1=
EXTT2=
EXTT3=
EXTT4=
EXTT5=
EXTT6=
EXTT7=
EXTT8=
EXTT9=
EXTT10=
EXTT11=
EXTT12=
PLAYORDER=
